<svg width="20" height="20" viewBox="0 0 20 20" fill="none" xmlns="http://www.w3.org/2000/svg">
<path d="M8.59375 0H0.78125C0.349731 0 0 0.349731 0 0.78125V8.59375C0 9.02527 0.349731 9.375 0.78125 9.375H8.59375C9.02527 9.375 9.375 9.02527 9.375 8.59375V0.78125C9.375 0.349731 9.02527 0 8.59375 0ZM7.8125 7.8125H1.5625V1.5625H7.8125V7.8125ZM19.5178 10.6845C19.2259 10.5635 18.8898 10.6303 18.6664 10.8537L10.8539 18.6662C10.6303 18.8898 10.5635 19.2258 10.6845 19.5177C10.8055 19.8097 11.0902 20 11.4062 20H19.2188C19.6503 20 20 19.6503 20 19.2188V11.4062C20 11.0902 19.8097 10.8054 19.5178 10.6845ZM18.4375 18.4375H13.2924L18.4375 13.2924V18.4375ZM15.3125 9.375C17.8972 9.375 20 7.27219 20 4.6875C20 2.10281 17.8972 0 15.3125 0C12.7278 0 10.625 2.10281 10.625 4.6875C10.625 7.27219 12.7278 9.375 15.3125 9.375ZM15.3125 1.5625C17.0357 1.5625 18.4375 2.96432 18.4375 4.6875C18.4375 6.41068 17.0357 7.8125 15.3125 7.8125C13.5893 7.8125 12.1875 6.41068 12.1875 4.6875C12.1875 2.96432 13.5893 1.5625 15.3125 1.5625ZM9.14612 11.9588L5.79239 15.3125L9.14612 18.6662C9.45129 18.9714 9.45129 19.4661 9.14612 19.7711C8.84109 20.0761 8.34641 20.0763 8.04138 19.7711L4.6875 16.4174L1.33362 19.7713C1.02859 20.0763 0.533905 20.0763 0.228882 19.7713C-0.0762939 19.4661 -0.0762939 18.9714 0.228882 18.6664L3.58261 15.3125L0.228882 11.9588C-0.0762939 11.6536 -0.0762939 11.1589 0.228882 10.8539C0.533905 10.5487 1.02859 10.5487 1.33362 10.8539L4.6875 14.2076L8.04138 10.8537C8.34641 10.5487 8.84109 10.5487 9.14612 10.8537C9.45129 11.1589 9.45129 11.6536 9.14612 11.9588Z" fill="black"/>
</svg>
