<svg width="23" height="15" viewBox="0 0 23 15" fill="none" xmlns="http://www.w3.org/2000/svg">
<path d="M8.93942 2.0303H21.0606C21.3178 2.0303 21.5645 1.92814 21.7463 1.74629C21.9282 1.56443 22.0303 1.31779 22.0303 1.06061C22.0303 0.803429 21.9282 0.556783 21.7463 0.374929C21.5645 0.193076 21.3178 0.0909119 21.0606 0.0909119H8.93942C8.68224 0.0909119 8.4356 0.193076 8.25374 0.374929C8.07189 0.556783 7.96973 0.803429 7.96973 1.06061C7.96973 1.31779 8.07189 1.56443 8.25374 1.74629C8.4356 1.92814 8.68224 2.0303 8.93942 2.0303Z" fill="black"/>
<path d="M21.0607 6.39392H1.66672C1.40954 6.39392 1.16289 6.49609 0.981039 6.67794C0.799186 6.85979 0.697021 7.10644 0.697021 7.36362C0.697021 7.6208 0.799186 7.86745 0.981039 8.0493C1.16289 8.23116 1.40954 8.33332 1.66672 8.33332H21.0607C21.3178 8.33332 21.5645 8.23116 21.7463 8.0493C21.9282 7.86745 22.0304 7.6208 22.0304 7.36362C22.0304 7.10644 21.9282 6.85979 21.7463 6.67794C21.5645 6.49609 21.3178 6.39392 21.0607 6.39392Z" fill="black"/>
<path d="M21.0607 12.697H1.66672C1.40954 12.697 1.16289 12.7992 0.981039 12.981C0.799186 13.1629 0.697021 13.4095 0.697021 13.6667C0.697021 13.9239 0.799186 14.1705 0.981039 14.3524C1.16289 14.5342 1.40954 14.6364 1.66672 14.6364H21.0607C21.3178 14.6364 21.5645 14.5342 21.7463 14.3524C21.9282 14.1705 22.0304 13.9239 22.0304 13.6667C22.0304 13.4095 21.9282 13.1629 21.7463 12.981C21.5645 12.7992 21.3178 12.697 21.0607 12.697Z" fill="black"/>
</svg>

