<svg width="96" height="16" viewBox="0 0 96 16" fill="none" xmlns="http://www.w3.org/2000/svg">
<path d="M10.1803 8.21538C10.936 8.27692 11.5707 8.58462 12.1148 9.16923C12.6589 9.75385 12.9309 10.5538 12.9309 11.5692C12.9309 12.8 12.538 13.8154 11.7219 14.5538C10.9058 15.2923 9.75718 15.6615 8.21566 15.6615H0.78009V1.07692H8.18544C9.48515 1.07692 10.5431 1.44615 11.3289 2.15385C12.1148 2.89231 12.5077 3.84615 12.5077 5.04615C12.5077 5.96923 12.2659 6.67692 11.7521 7.23077C11.2383 7.78462 10.7244 8.06154 10.1501 8.12308L10.1803 8.21538ZM4.31652 7.10769H7.39956C7.9134 7.10769 8.33657 6.95385 8.66905 6.64615C8.97131 6.33846 9.15266 5.96923 9.15266 5.44615C9.15266 4.98462 9.00153 4.64615 8.69928 4.36923C8.39702 4.09231 8.00408 3.96923 7.55069 3.96923H4.31652V7.10769ZM7.58092 12.7692C8.12498 12.7692 8.57837 12.6154 8.88063 12.3385C9.18289 12.0615 9.33402 11.6615 9.33402 11.1385C9.33402 10.6462 9.18289 10.2769 8.85041 10C8.54815 9.72308 8.12498 9.56923 7.64137 9.56923H4.31652V12.7692H7.58092ZM25.1724 15.6615H21.7569V14.6154C20.9105 15.5385 19.7922 16 18.4622 16C17.1928 16 16.1953 15.5692 15.4397 14.7385C14.684 13.9077 14.2911 12.8 14.2911 11.4462V4.73846H17.6764V10.7077C17.6764 11.3538 17.8577 11.8769 18.1902 12.2769C18.5227 12.6769 18.9761 12.8615 19.5201 12.8615C20.2153 12.8615 20.7594 12.6154 21.1523 12.1231C21.5453 11.6308 21.7266 10.8615 21.7266 9.81538V4.73846H25.1422L25.1724 15.6615ZM35.7212 15.6615H26.6535V15.0154L30.9153 7.50769H26.7744V4.73846H35.6608V5.38462L31.3989 12.8923H35.691V15.6615H35.7212ZM46.2398 15.6615H37.2023V15.0154L41.4339 7.50769H37.293V4.73846H46.1794V5.38462L41.9175 12.8923H46.2096L46.2398 15.6615ZM51.3178 7.32308H57.5141V10.4615H51.3178V15.6923H47.7814V1.07692H58.0582V4.21538H51.3178V7.32308ZM82.5714 11.1077H74.7126C74.9242 12.4615 75.9217 13.2308 77.4027 13.2308C78.5816 13.2308 79.7604 12.7692 80.6369 12.0615L81.9366 14.3692C80.7276 15.4154 79.1861 16 77.4027 16C73.8059 16 71.3576 13.7846 71.3576 10.2154C71.3576 8.52308 71.9016 7.13846 72.9898 6.06154C74.0779 4.98462 75.4381 4.43077 77.04 4.43077C78.5816 4.43077 79.8813 4.95385 80.9392 6.03077C81.9971 7.10769 82.5411 8.49231 82.5714 10.2462V11.1077ZM75.6496 7.69231C75.2265 8 74.9242 8.43077 74.7731 8.95385H79.1861C79.0349 8.4 78.7629 7.96923 78.37 7.66154C77.977 7.38462 77.5237 7.23077 77.04 7.23077C76.5262 7.23077 76.0728 7.38462 75.6496 7.69231ZM70.0579 11.1077H62.1991C62.4107 12.4615 63.4082 13.2308 64.8892 13.2308C66.068 13.2308 67.2468 12.7692 68.1234 12.0615L69.4231 14.3692C68.2141 15.4154 66.6726 16 64.8892 16C61.2923 16 58.844 13.7846 58.844 10.2154C58.844 8.52308 59.3881 7.13846 60.4762 6.06154C61.5644 4.98462 62.9245 4.43077 64.5265 4.43077C66.068 4.43077 67.3678 4.95385 68.4257 6.03077C69.4836 7.10769 70.0276 8.49231 70.0579 10.2462V11.1077ZM63.1361 7.69231C62.713 8 62.4107 8.43077 62.2596 8.95385H66.6726C66.5214 8.4 66.2494 7.96923 65.8565 7.66154C65.4635 7.38462 65.0101 7.23077 64.5265 7.23077C64.0127 7.23077 63.5593 7.38462 63.1361 7.69231ZM95.7801 15.6615H92.3646V14.8C91.488 15.6 90.3999 16 89.0397 16C87.5889 16 86.3496 15.4462 85.3219 14.3692C84.2942 13.2923 83.7804 11.9077 83.7804 10.2154C83.7804 8.52308 84.2942 7.13846 85.3219 6.06154C86.3496 4.98462 87.5889 4.43077 89.0397 4.43077C90.3999 4.43077 91.5182 4.83077 92.3646 5.63077V0H95.7801V15.6615ZM91.6089 12.2462C92.1228 11.7231 92.3948 11.0462 92.3948 10.2154C92.3948 9.41539 92.1228 8.73846 91.6089 8.18462C91.0951 7.66154 90.4603 7.38462 89.7651 7.38462C89.0095 7.38462 88.405 7.66154 87.9214 8.18462C87.4377 8.70769 87.1959 9.38462 87.1959 10.2154C87.1959 11.0462 87.4377 11.7538 87.9214 12.2769C88.405 12.8 89.0095 13.0462 89.7651 13.0462C90.4603 13.0462 91.0648 12.7692 91.6089 12.2462Z" fill="#0B0D27"/>
</svg>
