<svg width="48" height="48" viewBox="0 0 48 48" fill="none" xmlns="http://www.w3.org/2000/svg">
<path d="M26.1219 23.9993L38.5613 11.5599C38.8423 11.2786 39.0001 10.8972 38.9999 10.4995C38.9998 10.1018 38.8418 9.72051 38.5606 9.43933C38.2794 9.15815 37.8981 9.00012 37.5004 9C37.1028 8.99988 36.7214 9.15766 36.44 9.43867L24.0006 21.878L11.5613 9.43867C11.2799 9.15766 10.8985 8.99988 10.5008 9C10.1032 9.00012 9.72185 9.15815 9.44066 9.43933C9.15948 9.72051 9.00146 10.1018 9.00133 10.4995C9.00121 10.8972 9.15899 11.2786 9.44 11.5599L21.8794 23.9993L9.44 36.4387C9.30057 36.5779 9.18995 36.7433 9.11445 36.9253C9.03895 37.1073 9.00006 37.3024 9 37.4995C8.99994 37.6966 9.03871 37.8917 9.11409 38.0738C9.18947 38.2558 9.29999 38.4213 9.43933 38.5606C9.57867 38.7 9.7441 38.8105 9.92617 38.8859C10.1082 38.9612 10.3034 39 10.5004 38.9999C10.6975 38.9999 10.8926 38.961 11.0746 38.8855C11.2567 38.81 11.422 38.6994 11.5613 38.5599L24.0006 26.1206L36.44 38.5599C36.7214 38.841 37.1028 38.9987 37.5004 38.9986C37.8981 38.9985 38.2794 38.8405 38.5606 38.5593C38.8418 38.2781 38.9998 37.8968 38.9999 37.4991C39.0001 37.1015 38.8423 36.72 38.5613 36.4387L26.1219 23.9993Z" fill="#7A7A7A"/>
</svg>
