<svg width="18" height="20" viewBox="0 0 18 20" fill="none" xmlns="http://www.w3.org/2000/svg">
<g clip-path="url(#clip0_169:3716)">
<path d="M12.2 11.6875C11.175 11.6875 10.6821 12.25 9 12.25C7.31786 12.25 6.82857 11.6875 5.8 11.6875C3.15 11.6875 1 13.8039 1 16.4125V17.3125C1 18.2441 1.76786 19 2.71429 19H15.2857C16.2321 19 17 18.2441 17 17.3125V16.4125C17 13.8039 14.85 11.6875 12.2 11.6875ZM15.2857 17.3125H2.71429V16.4125C2.71429 14.7391 4.1 13.375 5.8 13.375C6.32143 13.375 7.16786 13.9375 9 13.9375C10.8464 13.9375 11.675 13.375 12.2 13.375C13.9 13.375 15.2857 14.7391 15.2857 16.4125V17.3125ZM9 11.125C11.8393 11.125 14.1429 8.85742 14.1429 6.0625C14.1429 3.26758 11.8393 1 9 1C6.16071 1 3.85714 3.26758 3.85714 6.0625C3.85714 8.85742 6.16071 11.125 9 11.125ZM9 2.6875C10.8893 2.6875 12.4286 4.20273 12.4286 6.0625C12.4286 7.92227 10.8893 9.4375 9 9.4375C7.11071 9.4375 5.57143 7.92227 5.57143 6.0625C5.57143 4.20273 7.11071 2.6875 9 2.6875Z" fill="#0B0D27" stroke="white" stroke-width="0.4"/>
</g>
<defs>
<clipPath id="clip0_169:3716">
<rect width="17.5" height="20" fill="white"/>
</clipPath>
</defs>
</svg>
