<svg width="95" height="95" viewBox="0 0 95 95" fill="none" xmlns="http://www.w3.org/2000/svg">
<rect width="95" height="95" rx="10" fill="#414250"/>
<g clip-path="url(#clip0)">
<path d="M61.0226 20.6125C57.215 18.88 52.835 18 48.0026 18C43.1351 18 38.7526 18.88 34.9801 20.615C34.3551 20.9025 34.0801 21.645 34.3675 22.2725C34.6576 22.8975 35.3951 23.1725 36.0251 22.8851C39.47 21.3026 43.5001 20.5001 48.0026 20.5001C52.475 20.5001 56.5051 21.3026 59.9851 22.8875C60.1526 22.965 60.3301 23 60.5026 23C60.9776 23 61.4326 22.7276 61.6426 22.2675C61.9276 21.64 61.6501 20.8975 61.0226 20.6125Z" fill="#F8D000"/>
<path d="M66.3951 30.8725C61.3275 25.7225 54.9651 23 47.9976 23C41.0576 23 34.7001 25.7225 29.6151 30.87C29.13 31.3625 29.1351 32.1549 29.625 32.64C30.1176 33.125 30.9075 33.1175 31.3926 32.63C36.0001 27.9651 41.7401 25.5001 47.9976 25.5001C54.2801 25.5001 60.0276 27.9651 64.6125 32.6275C64.8576 32.875 65.1801 33.0001 65.5026 33.0001C65.8176 33.0001 66.135 32.8801 66.3801 32.6401C66.8726 32.155 66.8801 31.3651 66.3951 30.8725Z" fill="#F8D000"/>
<path d="M47.9975 28C46.215 28 44.445 28.22 42.735 28.655C42.065 28.825 41.66 29.5049 41.83 30.175C42 30.845 42.685 31.245 43.35 31.0775C44.8575 30.695 46.4225 30.5 47.9975 30.5C58.3376 30.5 66.7475 38.9099 66.7475 49.25C66.7475 49.94 67.3076 50.5 67.9976 50.5C68.6876 50.5 69.2476 49.94 69.2476 49.25C69.2476 37.5325 59.7151 28 47.9975 28Z" fill="#F8D000"/>
<path d="M39.0376 31.32C38.6926 30.7275 37.9301 30.525 37.3276 30.8725C35.7326 31.8049 34.2501 32.9575 32.9276 34.2975C29.0351 38.2325 26.8426 43.535 26.7526 49.2324C26.7426 49.9224 27.2926 50.49 27.9851 50.4999C27.9901 50.4999 27.9976 50.4999 28.0051 50.4999C28.6851 50.4999 29.2426 49.9549 29.2526 49.2699C29.3326 44.22 31.2676 39.5275 34.7051 36.0525C35.8751 34.8675 37.1825 33.8525 38.5901 33.03C39.185 32.6825 39.3851 31.9175 39.0376 31.32Z" fill="#F8D000"/>
<path d="M60.2476 38.5825C57.1526 35.035 52.6876 33 47.9975 33C43.6376 33 39.5501 34.71 36.485 37.8125C33.4301 40.8975 31.7501 45.0701 31.7501 49.6226C31.7576 52.3126 30.9176 55.5376 29.4125 58.6351L28.71 59.8852C28.3725 60.4876 28.5849 61.2477 29.1875 61.5877C29.3825 61.6977 29.5925 61.7502 29.8001 61.7502C30.2375 61.7502 30.6626 61.5202 30.89 61.1127L31.6275 59.7977C33.3549 56.2427 34.26 52.7228 34.25 49.5578C34.25 45.7303 35.6726 42.1853 38.2601 39.5702C40.8551 36.9452 44.3101 35.5002 47.9975 35.5002C51.965 35.5002 55.745 37.2227 58.3625 40.2277C58.815 40.7476 59.6075 40.8001 60.1275 40.3477C60.6476 39.8925 60.7001 39.1025 60.2476 38.5825Z" fill="#F8D000"/>
<path d="M66.5726 63.6598L65.1626 59.0474C64.37 55.4299 64.3025 51.9773 64.2601 49.9124L64.2476 49.2499C64.2476 47.3974 63.935 45.5774 63.32 43.8399C63.09 43.1899 62.3825 42.8499 61.725 43.08C61.0749 43.31 60.735 44.0225 60.965 44.675C61.485 46.1426 61.7475 47.6825 61.7475 49.2825L61.7625 49.9625C61.8075 52.1175 61.8774 55.725 62.7474 59.6775L64.1775 64.3875C64.34 64.9275 64.8375 65.2725 65.375 65.2725C65.495 65.2725 65.6175 65.255 65.7401 65.22C66.4001 65.0173 66.7726 64.3223 66.5726 63.6598Z" fill="#F8D000"/>
<path d="M62.9251 69.435L61.7626 65.7125C59.7001 59.2725 59.3152 52.0325 59.2477 49.25C59.2477 43.0475 54.2002 38 47.9977 38C41.7952 38 36.7501 43.125 36.7501 49.4675C36.7552 50.7825 36.5126 57.73 31.2326 65.345C30.8376 65.9125 30.9801 66.6925 31.5451 67.085C32.1101 67.4775 32.8927 67.3375 33.2851 66.7725C38.8501 58.7499 39.2576 51.4925 39.2501 49.4274C39.2501 44.505 43.1751 40.5024 47.9976 40.5024C52.8225 40.5024 56.7476 44.4274 56.7476 49.2825C56.8376 52.9125 57.3001 59.9724 59.3801 66.47L60.5351 70.1775C60.7026 70.7124 61.1951 71.055 61.7301 71.055C61.8525 71.055 61.9776 71.0375 62.1026 71C62.7626 70.7925 63.1301 70.0925 62.9251 69.435Z" fill="#F8D000"/>
<path d="M54.2477 49.25C54.2477 45.805 51.4427 43 47.9977 43C44.5527 43 41.7477 45.805 41.7477 49.2975C41.7627 49.71 42.0402 59.53 34.1002 69.8625C33.6802 70.41 33.7827 71.1951 34.3302 71.6151C34.8802 72.0375 35.6628 71.9301 36.0828 71.385C44.5653 60.345 44.2602 49.6525 44.2452 49.2501C44.2452 47.1825 45.9277 45.5001 47.9952 45.5001C50.0628 45.5001 51.7452 47.1825 51.7477 49.2776C51.7827 50.6777 51.7902 63.3077 42.0302 75.9876C41.6102 76.5351 41.7101 77.3201 42.2576 77.7401C42.4877 77.9151 42.7551 78.0002 43.0202 78.0002C43.3952 78.0002 43.7651 77.8327 44.0102 77.5127C54.3126 64.1324 54.2826 50.7074 54.2477 49.25Z" fill="#F8D000"/>
<path d="M49.2425 49.1948C49.21 48.5073 48.67 47.9598 47.94 48.0023C47.2524 48.0323 46.7175 48.6149 46.745 49.3049C46.745 49.3223 46.815 51.1523 46.35 54.0449C46.2425 54.7274 46.7075 55.3699 47.3874 55.4798C47.4549 55.4898 47.5224 55.4948 47.5875 55.4948C48.1899 55.4948 48.7224 55.0574 48.8199 54.4448C49.33 51.2723 49.2475 49.2773 49.2425 49.1948Z" fill="#F8D000"/>
<path d="M46.7901 58.0874C46.125 57.8899 45.4326 58.2699 45.2351 58.9299C43.6726 64.2074 41.0726 69.1424 37.5126 73.6023C37.0826 74.1423 37.17 74.9274 37.71 75.3598C37.9401 75.5448 38.215 75.6322 38.49 75.6322C38.8575 75.6322 39.22 75.4723 39.4675 75.1622C43.23 70.4522 45.9775 65.2297 47.635 59.6422C47.8301 58.9799 47.4526 58.2824 46.7901 58.0874Z" fill="#F8D000"/>
<path d="M58.9051 73.0651L57.3976 68.2777C56.7976 66.4827 56.2376 64.5852 56.2351 64.5777C56.0851 64.0702 55.6351 63.7128 55.1076 63.6828C54.5676 63.6453 54.0901 63.9552 53.8851 64.4427C53.8576 64.5077 51.0726 71.0553 47.8801 76.0803C47.5101 76.6628 47.6826 77.4353 48.2651 77.8053C48.4726 77.9378 48.7051 78.0003 48.935 78.0003C49.35 78.0003 49.7525 77.7953 49.9901 77.4203C51.9226 74.3778 53.6776 70.8803 54.8225 68.4478C54.8876 68.6479 54.9551 68.8504 55.0226 69.0503L56.5201 73.8153C56.7276 74.4728 57.4226 74.8428 58.0876 74.6328C58.745 74.4251 59.1125 73.7251 58.9051 73.0651Z" fill="#F8D000"/>
</g>
<defs>
<clipPath id="clip0">
<rect width="60" height="60" fill="white" transform="translate(18 18)"/>
</clipPath>
</defs>
</svg>