<svg width="61" height="20" viewBox="0 0 61 20" fill="none" xmlns="http://www.w3.org/2000/svg">
<path d="M26.0004 10.525C26.0004 13.4024 23.7494 15.5227 20.9869 15.5227C18.2244 15.5227 15.9734 13.4024 15.9734 10.525C15.9734 7.62727 18.2244 5.52722 20.9869 5.52722C23.7494 5.52722 26.0004 7.62727 26.0004 10.525ZM23.8057 10.525C23.8057 8.72686 22.5011 7.49658 20.9869 7.49658C19.4727 7.49658 18.1681 8.72686 18.1681 10.525C18.1681 12.305 19.4727 13.5534 20.9869 13.5534C22.5011 13.5534 23.8057 12.3028 23.8057 10.525Z" fill="#0B0D27"/>
<path d="M36.8161 10.525C36.8161 13.4024 34.5651 15.5227 31.8026 15.5227C29.0401 15.5227 26.7891 13.4024 26.7891 10.525C26.7891 7.62952 29.0401 5.52722 31.8026 5.52722C34.5651 5.52722 36.8161 7.62727 36.8161 10.525ZM34.6214 10.525C34.6214 8.72686 33.3168 7.49658 31.8026 7.49658C30.2884 7.49658 28.9837 8.72686 28.9837 10.525C28.9837 12.305 30.2884 13.5534 31.8026 13.5534C33.3168 13.5534 34.6214 12.3028 34.6214 10.525Z" fill="#0B0D27"/>
<path d="M47.1812 5.82916V14.8017C47.1812 18.4925 45.0045 20 42.4313 20C40.009 20 38.5511 18.3799 38.0013 17.0549L39.9121 16.2595C40.2524 17.073 41.0861 18.0329 42.429 18.0329C44.0762 18.0329 45.0969 17.0166 45.0969 15.1036V14.3848H45.0203C44.5291 14.9909 43.5827 15.5205 42.3885 15.5205C39.8896 15.5205 37.6003 13.3438 37.6003 10.543C37.6003 7.7219 39.8896 5.52722 42.3885 5.52722C43.5804 5.52722 44.5268 6.05674 45.0203 6.64484H45.0969V5.83141H47.1812V5.82916ZM45.2524 10.543C45.2524 8.78319 44.0784 7.49658 42.5845 7.49658C41.0703 7.49658 39.8017 8.78319 39.8017 10.543C39.8017 12.2848 41.0703 13.5534 42.5845 13.5534C44.0784 13.5534 45.2524 12.2848 45.2524 10.543Z" fill="#0B0D27"/>
<path d="M50.6174 0.570068V15.2163H48.4768V0.570068H50.6174Z" fill="#0B0D27"/>
<path d="M58.959 12.1699L60.6625 13.3056C60.1127 14.119 58.7877 15.5205 56.4984 15.5205C53.6593 15.5205 51.539 13.3258 51.539 10.5228C51.539 7.55071 53.6773 5.52502 56.2528 5.52502C58.8463 5.52502 60.1149 7.58902 60.5295 8.70438L60.7571 9.27221L54.0762 12.0392C54.5877 13.0419 55.3831 13.5534 56.4984 13.5534C57.616 13.5534 58.3912 13.0036 58.959 12.1699ZM53.7156 10.3718L58.1816 8.51736C57.936 7.89321 57.1969 7.45833 56.3272 7.45833C55.2118 7.45833 53.6593 8.443 53.7156 10.3718Z" fill="#0B0D27"/>
<path d="M7.87066 9.22487V7.10455H15.0158C15.0856 7.47409 15.1217 7.91122 15.1217 8.38441C15.1217 9.97521 14.6868 11.9423 13.2853 13.3438C11.922 14.7634 10.1803 15.5205 7.87291 15.5205C3.59621 15.5205 0 12.037 0 7.76025C0 3.48355 3.59621 0 7.87291 0C10.2388 0 11.9243 0.928346 13.1906 2.13835L11.6945 3.63452C10.7864 2.78278 9.5561 2.12032 7.87066 2.12032C4.74763 2.12032 2.30509 4.63722 2.30509 7.76025C2.30509 10.8833 4.74763 13.4002 7.87066 13.4002C9.89635 13.4002 11.05 12.5867 11.7891 11.8477C12.3885 11.2483 12.7828 10.3921 12.9383 9.22262L7.87066 9.22487Z" fill="#0B0D27"/>
</svg>
