<svg width="28" height="28" viewBox="0 0 28 28" fill="none" xmlns="http://www.w3.org/2000/svg">
<path d="M14 12.8335V9.3335L18.6667 14.0002L14 18.6668V15.1668H9.33334V12.8335H14ZM14 2.3335C20.44 2.3335 25.6667 7.56016 25.6667 14.0002C25.6667 20.4402 20.44 25.6668 14 25.6668C7.56001 25.6668 2.33334 20.4402 2.33334 14.0002C2.33334 7.56016 7.56001 2.3335 14 2.3335ZM14 23.3335C19.1567 23.3335 23.3333 19.1568 23.3333 14.0002C23.3333 8.8435 19.1567 4.66683 14 4.66683C8.84334 4.66683 4.66668 8.8435 4.66668 14.0002C4.66668 19.1568 8.84334 23.3335 14 23.3335Z" fill="white"/>
</svg>
