<svg width="24" height="24" viewBox="0 0 24 24" fill="none" xmlns="http://www.w3.org/2000/svg">
<g opacity="0.8" clip-path="url(#clip0_116:168)">
<path fill-rule="evenodd" clip-rule="evenodd" d="M12 0C7.50022 0 3.83998 3.66024 3.83998 8.16002C3.83998 9.51069 4.17751 10.8496 4.81974 12.0379L11.1599 23.5048C11.3291 23.8109 11.651 24 12 24C12.3489 24 12.671 23.8106 12.8402 23.5045L19.1804 12.0382L19.1826 12.034C19.8225 10.8494 20.16 9.5105 20.16 8.15997C20.16 3.66024 16.4998 0 12 0ZM5.76001 8.16002C5.76001 4.71963 8.55966 1.92003 12 1.92003C15.4403 1.92003 18.24 4.71968 18.24 8.16002C18.24 9.19252 17.9819 10.2163 17.4968 11.1149L17.4957 11.117L12 21.0562L6.50667 11.1212L6.50559 11.1192C6.01799 10.2161 5.76001 9.19241 5.76001 8.16002ZM12 3.84C9.61757 3.84 7.68003 5.77755 7.68003 8.15998C7.68003 10.5425 9.61757 12.48 12 12.48C14.3824 12.48 16.32 10.5425 16.32 8.16003C16.32 5.7776 14.3824 3.84 12 3.84ZM9.60001 8.16003C9.60001 6.83699 10.677 5.76003 12 5.76003C13.323 5.76003 14.4 6.83699 14.4 8.16003C14.4 9.48303 13.323 10.56 12 10.56C10.677 10.56 9.60001 9.48307 9.60001 8.16003Z" fill="white"/>
<path d="M4.81974 12.0379L4.64378 12.133L4.64471 12.1347L4.81974 12.0379ZM11.1599 23.5048L11.335 23.408L11.335 23.408L11.1599 23.5048ZM12.8402 23.5045L12.6652 23.4077L12.6651 23.4078L12.8402 23.5045ZM19.1804 12.0382L19.3554 12.135L19.3564 12.1332L19.1804 12.0382ZM19.1826 12.034L19.0067 11.939L19.0067 11.939L19.1826 12.034ZM17.4968 11.1149L17.6727 11.21L17.6727 11.2099L17.4968 11.1149ZM17.4957 11.117L17.6707 11.2137L17.6716 11.212L17.4957 11.117ZM12 21.0562L11.825 21.1529L12 21.4695L12.175 21.1529L12 21.0562ZM6.50667 11.1212L6.3307 11.2163L6.33164 11.218L6.50667 11.1212ZM6.50559 11.1192L6.32961 11.2142L6.32963 11.2143L6.50559 11.1192ZM4.03998 8.16002C4.03998 3.7707 7.61068 0.2 12 0.2V-0.2C7.38976 -0.2 3.63998 3.54978 3.63998 8.16002H4.03998ZM4.99568 11.9428C4.3693 10.7838 4.03998 9.4776 4.03998 8.16002H3.63998C3.63998 9.54378 3.98572 10.9154 4.64379 12.133L4.99568 11.9428ZM11.335 23.408L4.99476 11.9411L4.64471 12.1347L10.9849 23.6015L11.335 23.408ZM12 23.8C11.7236 23.8 11.4688 23.6503 11.335 23.408L10.9849 23.6015C11.1894 23.9716 11.5785 24.2 12 24.2V23.8ZM12.6651 23.4078C12.5313 23.6501 12.2763 23.8 12 23.8V24.2C12.4216 24.2 12.8108 23.9712 13.0152 23.6012L12.6651 23.4078ZM19.0054 11.9414L12.6652 23.4077L13.0152 23.6013L19.3554 12.135L19.0054 11.9414ZM19.0067 11.939L19.0044 11.9431L19.3564 12.1332L19.3586 12.1291L19.0067 11.939ZM19.96 8.15997C19.96 9.47747 19.6307 10.7837 19.0067 11.939L19.3586 12.1291C20.0143 10.9152 20.36 9.54353 20.36 8.15997H19.96ZM12 0.2C16.3893 0.2 19.96 3.77069 19.96 8.15997H20.36C20.36 3.54978 16.6102 -0.2 12 -0.2V0.2ZM12 1.72003C8.4492 1.72003 5.56001 4.60918 5.56001 8.16002H5.96001C5.96001 4.83009 8.67011 2.12003 12 2.12003V1.72003ZM18.44 8.16002C18.44 4.60922 15.5508 1.72003 12 1.72003V2.12003C15.3299 2.12003 18.04 4.83013 18.04 8.16002H18.44ZM17.6727 11.2099C18.1738 10.2818 18.44 9.22543 18.44 8.16002H18.04C18.04 9.15962 17.7901 10.1507 17.3208 11.0199L17.6727 11.2099ZM17.6716 11.212L17.6727 11.21L17.3208 11.0199L17.3197 11.022L17.6716 11.212ZM12.175 21.1529L17.6707 11.2137L17.3206 11.0202L11.825 20.9594L12.175 21.1529ZM6.33164 11.218L11.825 21.1529L12.175 20.9594L6.68169 11.0244L6.33164 11.218ZM6.32963 11.2143L6.33071 11.2162L6.68263 11.0261L6.68156 11.0241L6.32963 11.2143ZM5.56001 8.16002C5.56001 9.22539 5.82615 10.2818 6.32961 11.2142L6.68158 11.0242C6.20983 10.1505 5.96001 9.15943 5.96001 8.16002H5.56001ZM7.88002 8.15998C7.88002 5.88801 9.72803 4.04 12 4.04V3.64C9.50711 3.64 7.48003 5.66709 7.48003 8.15998H7.88002ZM12 12.28C9.72802 12.28 7.88002 10.432 7.88002 8.15998H7.48003C7.48003 10.6529 9.50711 12.68 12 12.68V12.28ZM16.12 8.16003C16.12 10.432 14.272 12.28 12 12.28V12.68C14.4929 12.68 16.52 10.6529 16.52 8.16003H16.12ZM12 4.04C14.272 4.04 16.12 5.88806 16.12 8.16003H16.52C16.52 5.66715 14.4929 3.64 12 3.64V4.04ZM12 5.56003C10.5665 5.56003 9.40001 6.72653 9.40001 8.16003H9.80001C9.80001 6.94744 10.7874 5.96003 12 5.96003V5.56003ZM14.6 8.16003C14.6 6.72653 13.4335 5.56003 12 5.56003V5.96003C13.2126 5.96003 14.2 6.94744 14.2 8.16003H14.6ZM12 10.76C13.4335 10.76 14.6 9.59349 14.6 8.16003H14.2C14.2 9.37258 13.2126 10.36 12 10.36V10.76ZM9.40001 8.16003C9.40001 9.59353 10.5665 10.76 12 10.76V10.36C10.7874 10.36 9.80001 9.37262 9.80001 8.16003H9.40001Z" fill="#0B0D27"/>
</g>
<defs>
<clipPath id="clip0_116:168">
<rect width="24" height="24" fill="white"/>
</clipPath>
</defs>
</svg>
