<svg width="95" height="20" viewBox="0 0 95 20" fill="none" xmlns="http://www.w3.org/2000/svg">
<path d="M94.3901 9.04802V7.40135H92.3452V4.84139L92.2764 4.86258L90.3557 5.45024L90.3178 5.46174V7.40144H87.2863V6.32086C87.2863 5.81771 87.3988 5.43267 87.6206 5.17589C87.8408 4.92218 88.1557 4.7932 88.5574 4.7932C88.8462 4.7932 89.1451 4.86122 89.446 4.99537L89.5215 5.02906V3.29489L89.486 3.28184C89.2053 3.18094 88.8235 3.13013 88.3503 3.13013C87.7538 3.13013 87.2119 3.25992 86.7393 3.51716C86.2664 3.77476 85.8944 4.1425 85.6338 4.61005C85.3741 5.07707 85.2423 5.61645 85.2423 6.21335V7.40135H83.8184V9.04802H85.2423V15.9852H87.2863V9.04802H90.3178V13.4565C90.3178 15.2721 91.1742 16.1921 92.8632 16.1921C93.1407 16.1921 93.4328 16.1596 93.7311 16.096C94.0347 16.0306 94.2415 15.9653 94.3632 15.8955L94.3901 15.8796V14.2177L94.307 14.2727C94.196 14.3466 94.0579 14.407 93.896 14.4519C93.7333 14.4976 93.5974 14.5206 93.4922 14.5206C93.0965 14.5206 92.8038 14.414 92.6222 14.2035C92.4385 13.9912 92.3453 13.62 92.3453 13.1006V9.04802H94.3901ZM79.2538 14.5208C78.5118 14.5208 77.9269 14.2748 77.5147 13.7902C77.0999 13.3032 76.8898 12.6089 76.8898 11.7266C76.8898 10.8164 77.0999 10.1041 77.5149 9.60842C77.9274 9.11605 78.5067 8.86615 79.2371 8.86615C79.9458 8.86615 80.51 9.10482 80.9142 9.5759C81.3203 10.0494 81.5265 10.7561 81.5265 11.6769C81.5265 12.609 81.3327 13.325 80.9504 13.804C80.5708 14.2794 80 14.5208 79.2538 14.5208ZM79.3446 7.19456C77.9292 7.19456 76.8049 7.60931 76.0033 8.42731C75.2023 9.24539 74.7961 10.3775 74.7961 11.7925C74.7961 13.1365 75.1926 14.2175 75.9746 15.0051C76.7567 15.7929 77.8209 16.192 79.1376 16.192C80.5097 16.192 81.6115 15.7714 82.4128 14.9421C83.2139 14.1137 83.6198 12.9923 83.6198 11.6103C83.6198 10.2454 83.2389 9.15626 82.4874 8.37396C81.7355 7.59129 80.678 7.19456 79.3446 7.19456ZM71.5005 7.19456C70.5377 7.19456 69.7412 7.44084 69.1328 7.92642C68.5207 8.4149 68.2102 9.05554 68.2102 9.83079C68.2102 10.2338 68.2773 10.5917 68.4091 10.8953C68.5418 11.1999 68.7472 11.4681 69.02 11.6932C69.2907 11.9165 69.7086 12.1504 70.2624 12.3883C70.728 12.5799 71.0752 12.7419 71.2957 12.8696C71.5113 12.9948 71.6643 13.1206 71.7507 13.2432C71.8346 13.3631 71.8772 13.5272 71.8772 13.7297C71.8772 14.3064 71.4454 14.587 70.5567 14.587C70.2271 14.587 69.8511 14.5182 69.4393 14.3825C69.0303 14.2489 68.6444 14.0532 68.2949 13.8023L68.2101 13.7414V15.7094L68.2412 15.7239C68.5304 15.8574 68.8951 15.97 69.3249 16.0585C69.7538 16.1472 70.1436 16.1923 70.4822 16.1923C71.527 16.1923 72.3683 15.9449 72.9823 15.4564C73.6001 14.9646 73.9132 14.3088 73.9132 13.5067C73.9132 12.9281 73.7446 12.432 73.4124 12.0318C73.0824 11.6349 72.5097 11.2705 71.7109 10.9484C71.0745 10.693 70.6668 10.4809 70.4986 10.3182C70.3365 10.1609 70.2542 9.93857 70.2542 9.65697C70.2542 9.40734 70.3558 9.20735 70.5644 9.0454C70.7746 8.88263 71.0673 8.79985 71.4343 8.79985C71.7749 8.79985 72.1233 8.85365 72.4699 8.95908C72.8161 9.06451 73.1203 9.20572 73.3742 9.37845L73.4577 9.43551V7.56873L73.4256 7.55496C73.1914 7.45451 72.8825 7.36856 72.5074 7.29881C72.1339 7.22952 71.7952 7.19456 71.5005 7.19456ZM62.8815 14.5208C62.1398 14.5208 61.5547 14.2748 61.1426 13.7902C60.7277 13.3032 60.5179 12.609 60.5179 11.7266C60.5179 10.8164 60.728 10.1041 61.143 9.60842C61.5551 9.11605 62.1344 8.86615 62.8651 8.86615C63.5736 8.86615 64.1378 9.10482 64.5421 9.5759C64.9483 10.0494 65.1544 10.7561 65.1544 11.6769C65.1544 12.609 64.9604 13.325 64.5782 13.804C64.1986 14.2794 63.6281 14.5208 62.8815 14.5208ZM62.9727 7.19456C61.5569 7.19456 60.4325 7.60931 59.6314 8.42731C58.8303 9.24539 58.4239 10.3775 58.4239 11.7925C58.4239 13.137 58.8206 14.2175 59.6027 15.0051C60.3847 15.7929 61.4489 16.192 62.7656 16.192C64.1375 16.192 65.2396 15.7714 66.0408 14.9421C66.8418 14.1137 67.2479 12.9923 67.2479 11.6103C67.2479 10.2454 66.8669 9.15626 66.1152 8.37396C65.3631 7.59129 64.3058 7.19456 62.9727 7.19456ZM55.3211 8.88789V7.40135H53.302V15.985H55.3211V11.5941C55.3211 10.8475 55.4904 10.2341 55.8245 9.77082C56.1542 9.31305 56.5937 9.08109 57.1303 9.08109C57.3122 9.08109 57.5163 9.11107 57.7374 9.17039C57.9563 9.22936 58.1148 9.2934 58.2082 9.36079L58.2931 9.42229V7.38667L58.2604 7.37263C58.0724 7.29275 57.8064 7.25244 57.4698 7.25244C56.9624 7.25244 56.5083 7.41548 56.1194 7.73648C55.778 8.01862 55.5313 8.40548 55.3426 8.88789H55.3211ZM49.6861 7.19456C48.7598 7.19456 47.9335 7.39319 47.2308 7.78476C46.5265 8.17722 45.9819 8.73753 45.6113 9.45C45.2424 10.1608 45.0551 10.991 45.0551 11.9169C45.0551 12.7279 45.2367 13.4721 45.5957 14.1281C45.9548 14.7851 46.4631 15.2992 47.1066 15.6557C47.7491 16.0117 48.4918 16.1922 49.314 16.1922C50.2736 16.1922 51.0928 16.0004 51.7497 15.6221L51.7762 15.6068V13.757L51.6914 13.819C51.3938 14.0357 51.0613 14.2087 50.7035 14.3333C50.3467 14.4579 50.0213 14.5208 49.736 14.5208C48.9437 14.5208 48.3077 14.2729 47.846 13.7842C47.3834 13.2948 47.1488 12.6076 47.1488 11.7429C47.1488 10.8727 47.3934 10.1678 47.8756 9.64773C48.3563 9.12918 48.9935 8.86615 49.7693 8.86615C50.433 8.86615 51.0797 9.09087 51.6915 9.53469L51.7762 9.59619V7.64708L51.7489 7.63168C51.5186 7.50279 51.2046 7.39636 50.8148 7.31566C50.4266 7.23514 50.0469 7.19456 49.6861 7.19456ZM43.6645 7.40144H41.6454V15.985H43.6645V7.40144ZM42.6756 3.74478C42.3433 3.74478 42.0534 3.85791 41.8153 4.08208C41.5762 4.3069 41.4549 4.58995 41.4549 4.92399C41.4549 5.25278 41.5747 5.53067 41.8116 5.74951C42.0469 5.9677 42.3376 6.0783 42.6757 6.0783C43.0136 6.0783 43.3055 5.9677 43.5436 5.74987C43.7832 5.53067 43.9048 5.25287 43.9048 4.92399C43.9048 4.60163 43.7865 4.32148 43.5534 4.09114C43.3206 3.86126 43.0251 3.74478 42.6756 3.74478ZM37.6377 6.76813V15.985H39.6983V4.00754H36.8464L33.2213 12.904L29.7034 4.00754H26.7353V15.9849H28.6718V6.76722H28.7382L32.453 15.985H33.9144L37.5712 6.76813H37.6377Z" fill="#0B0D27"/>
<path d="M10.2556 9.50369H0.75705V0.00512695H10.2556V9.50369Z" fill="#0B0D27"/>
<path d="M20.7431 9.50369H11.2447V0.00512695H20.7431V9.50369Z" fill="#0B0D27"/>
<path d="M10.2553 19.9949H0.75705V10.4965H10.2553V19.9949Z" fill="#0B0D27"/>
<path d="M20.7431 19.9949H11.2447V10.4965H20.7431V19.9949Z" fill="#0B0D27"/>
</svg>
