<svg width="174" height="45" viewBox="0 0 174 45" fill="none" xmlns="http://www.w3.org/2000/svg">
<path d="M58.4174 15.9663H53.1834C53.1382 15.9663 53.0948 15.984 53.0622 16.0158C53.0297 16.0475 53.0107 16.0908 53.0091 16.1365V26.3533C53.0091 29.0032 54.872 29.0943 58.4174 28.9059C58.4412 28.9043 58.4652 28.9076 58.4878 28.9157C58.5103 28.9238 58.531 28.9365 58.5484 28.953C58.5659 28.9696 58.5798 28.9896 58.5893 29.0118C58.5988 29.034 58.6037 29.058 58.6036 29.0822V34.5522C58.6026 34.5956 58.5863 34.6371 58.5577 34.6695C58.529 34.7018 58.4899 34.7227 58.4474 34.7285C49.8123 35.707 46.6394 33.1482 46.6394 26.3533V16.1365C46.6394 16.0913 46.6217 16.0481 46.5901 16.0161C46.5586 15.9842 46.5158 15.9663 46.4712 15.9663H42.5171C42.4945 15.9663 42.4722 15.9617 42.4513 15.9528C42.4305 15.9439 42.4117 15.9308 42.396 15.9143C42.3803 15.8979 42.368 15.8784 42.3599 15.857C42.3518 15.8357 42.3481 15.8129 42.3489 15.79V9.94928C42.3481 9.92642 42.3518 9.90364 42.3599 9.88229C42.368 9.86093 42.3803 9.84145 42.396 9.825C42.4117 9.80854 42.4305 9.79546 42.4513 9.78653C42.4722 9.7776 42.4945 9.77301 42.5171 9.77302H46.4592C46.4818 9.77304 46.5041 9.76844 46.525 9.75951C46.5458 9.75058 46.5646 9.7375 46.5803 9.72105C46.596 9.7046 46.6083 9.68511 46.6164 9.66376C46.6245 9.64241 46.6282 9.61962 46.6274 9.59677V4.86216C46.6294 4.82506 46.6426 4.78947 46.6651 4.76014C46.6877 4.73081 46.7185 4.70915 46.7536 4.69806L52.7628 2.87472C52.7894 2.86047 52.8194 2.85371 52.8495 2.85518C52.8796 2.85664 52.9088 2.86626 52.934 2.88303C52.9591 2.8998 52.9794 2.92311 52.9926 2.95052C53.0058 2.97793 53.0116 3.00843 53.0091 3.03882V9.59677C53.0091 9.64351 53.0275 9.68834 53.0602 9.7214C53.0929 9.75445 53.1372 9.77302 53.1834 9.77302H58.4174C58.4636 9.77302 58.5079 9.79159 58.5406 9.82465C58.5733 9.8577 58.5916 9.90253 58.5916 9.94928V15.8022C58.5886 15.8468 58.5689 15.8886 58.5365 15.919C58.5042 15.9495 58.4616 15.9664 58.4174 15.9663Z" fill="white"/>
<path d="M71.9741 28.5656C71.955 28.5851 71.9407 28.6089 71.9323 28.635C71.9239 28.6612 71.9216 28.6889 71.9257 28.7161C71.9298 28.7432 71.9401 28.7691 71.9558 28.7915C71.9715 28.8139 71.9922 28.8323 72.0162 28.8452C74.7323 30.3282 77.3884 29.7265 80.0144 27.0705C81.6789 25.3808 82.418 23.4906 82.1957 21.4971C82.19 21.4571 82.1991 21.4163 82.2213 21.3827C82.2435 21.349 82.2771 21.3249 82.3159 21.3148L87.7241 19.85C87.7474 19.8438 87.7718 19.8425 87.7956 19.8462C87.8195 19.85 87.8423 19.8587 87.8626 19.8719C87.883 19.885 87.9004 19.9023 87.9138 19.9226C87.9272 19.9429 87.9362 19.9658 87.9404 19.9898C88.6375 24.1531 87.3395 27.9335 84.0345 31.2763C81.1381 34.2058 77.9592 35.6523 74.4679 35.6523C72.7414 35.6524 71.0331 35.2956 69.448 34.6037C67.8628 33.9118 66.4342 32.8994 65.2499 31.6288C64.0071 30.4357 63.0144 29.0019 62.331 27.4127C61.6476 25.8235 61.2874 24.1114 61.2718 22.3784C61.1997 18.8472 62.5638 15.6928 65.2499 12.9821C66.3944 11.7489 67.7882 10.7794 69.3363 10.1396C70.8844 9.49989 72.5506 9.20488 74.2215 9.27468C77.6632 9.37077 80.9265 10.844 83.2954 13.3711C83.8693 13.9739 84.3995 14.6178 84.8818 15.2978C84.9077 15.3294 84.9218 15.3692 84.9218 15.4102C84.9218 15.4513 84.9077 15.491 84.8818 15.5227L71.9741 28.5656ZM76.9918 16.41C77.012 16.3929 77.0282 16.3715 77.0394 16.3474C77.0505 16.3232 77.0563 16.2969 77.0563 16.2702C77.0563 16.2436 77.0505 16.2172 77.0394 16.1931C77.0282 16.1689 77.012 16.1475 76.9918 16.1304C75.8079 15.3321 74.3803 14.9895 72.968 15.1645C71.5557 15.3396 70.2523 16.0208 69.294 17.0847C66.9445 19.4671 66.5539 22.348 68.1283 25.083C68.1424 25.1059 68.1613 25.1254 68.1837 25.1399C68.2062 25.1545 68.2315 25.1639 68.2579 25.1674C68.2844 25.1709 68.3113 25.1684 68.3366 25.1601C68.362 25.1518 68.3852 25.138 68.4047 25.1195L76.9918 16.41Z" fill="white"/>
<path d="M113.672 34.9534H106.713C106.688 34.9535 106.663 34.9481 106.64 34.9376C106.618 34.9271 106.597 34.9118 106.581 34.8926L97.9517 24.0012C97.9288 23.9742 97.8984 23.9549 97.8645 23.9457C97.8305 23.9365 97.7946 23.9379 97.7614 23.9497C97.7283 23.9616 97.6995 23.9833 97.6787 24.012C97.658 24.0407 97.6463 24.0751 97.6452 24.1106V34.7832C97.6437 34.8289 97.6246 34.8722 97.5921 34.9039C97.5596 34.9357 97.5162 34.9534 97.471 34.9534H91.4618C91.4177 34.9519 91.3758 34.9335 91.3445 34.9019C91.3133 34.8703 91.2951 34.8279 91.2936 34.7832V0.176256C91.2936 0.130544 91.3111 0.0866099 91.3425 0.0537247C91.3739 0.0208396 91.4167 0.00157626 91.4618 0L97.471 0C97.5172 0 97.5615 0.0185698 97.5942 0.0516242C97.6269 0.0846786 97.6452 0.12951 97.6452 0.176256V20.47C97.6439 20.5068 97.6543 20.5431 97.6751 20.5733C97.6958 20.6036 97.7256 20.6263 97.7602 20.6379C97.7947 20.6495 97.832 20.6495 97.8666 20.6379C97.9011 20.6263 97.931 20.6036 97.9517 20.5733L106.082 10.0527C106.099 10.0319 106.12 10.0152 106.144 10.0037C106.168 9.9921 106.194 9.98601 106.22 9.98582H113.377C113.41 9.98664 113.441 9.99657 113.468 10.0145C113.495 10.0324 113.517 10.0576 113.531 10.0873C113.544 10.117 113.55 10.1499 113.546 10.1824C113.542 10.215 113.53 10.2458 113.509 10.2715L103.895 22.2083C103.869 22.2399 103.855 22.2796 103.855 22.3207C103.855 22.3618 103.869 22.4015 103.895 22.4331L113.798 34.6738C113.816 34.6991 113.827 34.7288 113.83 34.76C113.834 34.7911 113.828 34.8225 113.816 34.851C113.803 34.8794 113.783 34.9039 113.757 34.9219C113.732 34.9399 113.702 34.9508 113.672 34.9534Z" fill="white"/>
<path d="M137.053 9.99232H143.062C143.085 9.99231 143.107 9.9969 143.128 10.0058C143.149 10.0148 143.168 10.0278 143.184 10.0443C143.199 10.0607 143.212 10.0802 143.22 10.1016C143.228 10.1229 143.232 10.1457 143.231 10.1686V34.7836C143.232 34.8065 143.228 34.8293 143.22 34.8506C143.212 34.872 143.199 34.8915 143.184 34.9079C143.168 34.9244 143.149 34.9375 143.128 34.9464C143.107 34.9553 143.085 34.9599 143.062 34.9599H137.053C137.031 34.9599 137.008 34.9553 136.987 34.9464C136.967 34.9375 136.948 34.9244 136.932 34.9079C136.916 34.8915 136.904 34.872 136.896 34.8506C136.888 34.8293 136.884 34.8065 136.885 34.7836V32.705C136.887 32.667 136.877 32.6293 136.855 32.598C136.834 32.5666 136.803 32.5435 136.767 32.5323C136.731 32.5211 136.692 32.5224 136.657 32.5361C136.621 32.5498 136.592 32.5751 136.573 32.6078C135.028 34.656 132.667 35.6467 129.524 35.6467C128.277 35.6883 127.036 35.4653 125.88 34.9921C124.724 34.519 123.679 33.8061 122.812 32.8995C121.081 31.0762 120.192 28.5539 120.192 25.3084V10.1686C120.192 10.1218 120.21 10.077 120.243 10.0439C120.275 10.0109 120.32 9.99232 120.366 9.99232H126.375C126.398 9.99231 126.42 9.9969 126.441 10.0058C126.462 10.0148 126.48 10.0278 126.496 10.0443C126.512 10.0607 126.524 10.0802 126.532 10.1016C126.54 10.1229 126.544 10.1457 126.543 10.1686V24.5243C126.543 27.8671 128.472 29.6661 131.435 29.6661C134.74 29.6661 136.843 27.6179 136.843 23.4729V10.1686C136.841 10.1417 136.846 10.1147 136.856 10.0899C136.867 10.0651 136.883 10.0432 136.903 10.026C136.924 10.0087 136.948 9.99671 136.974 9.99086C137 9.98501 137.027 9.98551 137.053 9.99232Z" fill="white"/>
<path d="M169.516 12.8471C171.876 15.3606 173.155 18.7173 173.074 22.1826C173.157 25.6644 171.879 29.0389 169.516 31.5728C168.454 32.7863 167.146 33.7538 165.681 34.4093C164.215 35.0649 162.628 35.393 161.025 35.3714C157.75 35.3714 155.184 34.2896 153.328 32.0955C153.306 32.0674 153.276 32.047 153.242 32.0371C153.208 32.0272 153.172 32.0284 153.138 32.0406C153.105 32.0527 153.077 32.075 153.057 32.1045C153.037 32.134 153.026 32.1691 153.027 32.2049V44.482C153.027 44.5288 153.009 44.5736 152.976 44.6066C152.943 44.6397 152.899 44.6583 152.853 44.6583H146.844C146.798 44.6583 146.753 44.6397 146.721 44.6066C146.688 44.5736 146.669 44.5288 146.669 44.482V9.87504C146.669 9.85217 146.674 9.82954 146.683 9.80848C146.692 9.78743 146.705 9.76839 146.721 9.75251C146.737 9.73662 146.756 9.72422 146.778 9.71603C146.799 9.70785 146.821 9.70405 146.844 9.70486H152.853C152.876 9.70405 152.898 9.70785 152.919 9.71603C152.94 9.72422 152.96 9.73662 152.976 9.75251C152.992 9.76839 153.005 9.78743 153.014 9.80848C153.023 9.82954 153.027 9.85217 153.027 9.87504V12.1664C153.026 12.2021 153.037 12.2372 153.057 12.2667C153.077 12.2962 153.105 12.3186 153.138 12.3307C153.172 12.3428 153.208 12.344 153.242 12.3341C153.276 12.3243 153.306 12.3039 153.328 12.2758C155.184 10.0817 157.75 8.99984 161.025 8.99984C162.631 8.98749 164.22 9.32467 165.685 9.9885C167.15 10.6523 168.457 11.6273 169.516 12.8471ZM159.842 29.2571C160.744 29.2877 161.643 29.1308 162.483 28.7963C163.324 28.4618 164.087 27.9567 164.727 27.3122C165.383 26.6438 165.897 25.8466 166.237 24.9696C166.577 24.0926 166.736 23.1544 166.704 22.213C166.741 21.2801 166.584 20.3498 166.243 19.482C165.903 18.6142 165.386 17.8281 164.727 17.1745C163.416 15.8915 161.663 15.1743 159.839 15.1743C158.014 15.1743 156.261 15.8915 154.95 17.1745C154.309 17.8389 153.808 18.628 153.477 19.4941C153.147 20.3602 152.994 21.2852 153.027 22.213C152.998 23.1494 153.153 24.0823 153.483 24.9577C153.813 25.8331 154.312 26.6334 154.95 27.3122C155.594 27.9503 156.36 28.449 157.201 28.7782C158.042 29.1073 158.94 29.2599 159.842 29.2267V29.2571Z" fill="white"/>
<path d="M4.68519 21.2481C4.68519 14.8338 9.82382 9.64983 16.1432 9.64983C22.4626 9.64983 27.6013 14.8338 27.6013 21.2481C27.6013 27.6624 22.4626 32.8464 16.1432 32.8464C9.82382 32.8464 4.68519 27.6624 4.68519 21.2481ZM16.1432 5.43555C7.49494 5.43555 0.5 12.5239 0.5 21.2481C0.5 29.9723 7.49494 37.0607 16.1432 37.0607C24.7915 37.0607 31.7865 29.9723 31.7865 21.2481C31.7865 12.5239 24.7915 5.43555 16.1432 5.43555Z" fill="#F8D000" stroke="#F8D000" stroke-miterlimit="10"/>
<path d="M22.4944 15.0059L8.94977 18.6768L14.5263 21.7887L11.1491 25.2044L12.387 26.4564L15.7702 23.0285L18.8649 28.7052L22.4944 15.0059Z" fill="#F8D000"/>
</svg>
