<svg width="20" height="20" viewBox="0 0 20 20" fill="none" xmlns="http://www.w3.org/2000/svg">
<path d="M19.028 0.975467C17.7282 -0.324101 15.6245 -0.324257 14.3246 0.975467L2.02969 13.2688C1.94773 13.3508 1.87992 13.4573 1.84098 13.5742L0.0417579 18.9713C-0.161367 19.5805 0.419844 20.1628 1.02996 19.9594L6.4277 18.1604C6.54184 18.1223 6.64898 18.0557 6.73312 17.9716L19.028 5.67827C20.3246 4.38171 20.3246 2.27203 19.028 0.975467ZM2.0182 17.9832L2.92355 15.2674L4.73434 17.0779L2.0182 17.9832ZM6.1807 16.3145L3.68707 13.8212L14.1274 3.38214L16.621 5.8755L6.1807 16.3145ZM17.923 4.57355L17.7258 4.77077L15.2322 2.27742L15.4294 2.08023C16.117 1.39285 17.2356 1.39285 17.923 2.08023C18.6106 2.76761 18.6106 3.88613 17.923 4.57355Z" fill="black"/>
</svg>
