<svg width="20" height="20" viewBox="0 0 20 20" fill="none" xmlns="http://www.w3.org/2000/svg">
<path d="M19.3567 14.396C19.3213 14.3667 15.3287 11.5093 14.2453 11.6967C13.7247 11.7887 13.4267 12.1433 12.83 12.8547C12.734 12.9693 12.5027 13.2433 12.324 13.4387C11.9469 13.3158 11.5791 13.1661 11.2233 12.9907C9.38701 12.0967 7.90333 10.613 7.00933 8.77667C6.83391 8.42095 6.68419 8.05312 6.56133 7.676C6.75733 7.49667 7.032 7.26533 7.14933 7.16667C7.85667 6.57333 8.21133 6.27533 8.30333 5.754C8.492 4.67467 5.63333 0.678667 5.604 0.642667C5.47382 0.458038 5.30426 0.304616 5.10758 0.193478C4.9109 0.0823395 4.69199 0.0162567 4.46667 0C3.308 0 0 4.29067 0 5.014C0 5.056 0.0606667 9.32533 5.32533 14.6807C10.6747 19.9393 14.944 20 14.986 20C15.7093 20 20 16.692 20 15.5333C19.9838 15.3079 19.9176 15.089 19.8063 14.8923C19.6951 14.6956 19.5415 14.526 19.3567 14.396ZM14.9127 18.6627C14.33 18.6147 10.7473 18.142 6.268 13.7413C1.84467 9.238 1.384 5.64533 1.338 5.08867C2.21185 3.7171 3.26719 2.47001 4.47533 1.38133C4.502 1.408 4.53733 1.448 4.58267 1.5C5.50922 2.76482 6.30738 4.11885 6.96533 5.542C6.75137 5.75725 6.52522 5.96003 6.288 6.14933C5.92013 6.42963 5.58232 6.74733 5.28 7.09733L5.118 7.324L5.166 7.598C5.30709 8.20915 5.52317 8.80052 5.80933 9.35867C6.83459 11.464 8.53584 13.165 10.6413 14.19C11.1994 14.4766 11.7908 14.6929 12.402 14.834L12.676 14.882L12.9027 14.72C13.254 14.4163 13.573 14.0772 13.8547 13.708C14.0633 13.4587 14.3427 13.126 14.448 13.032C15.8752 13.6893 17.2327 14.4884 18.5 15.4173C18.5553 15.464 18.594 15.5 18.62 15.5233C17.5315 16.7318 16.2844 17.7874 14.9127 18.6613V18.6627Z" fill="black"/>
</svg>
