<svg width="28" height="28" viewBox="0 0 28 28" fill="none" xmlns="http://www.w3.org/2000/svg">
<path fill-rule="evenodd" clip-rule="evenodd" d="M14 0C6.25575 0 0 6.28023 0 14C0 21.7198 6.25575 28 14 28C21.7442 28 28 21.7198 28 14C28 6.28023 21.7442 0 14 0ZM4.49678 14C4.49678 8.72744 8.76365 4.47508 14 4.47508C19.2363 4.47508 23.5032 8.72744 23.5032 14C23.5032 19.2726 19.2363 23.5249 14 23.5249C8.76365 23.5249 4.49678 19.2726 4.49678 14Z" fill="#0B0D27"/>
<path d="M19.508 8.64271L7.76157 11.7933L12.5977 14.464L9.66893 17.3954L10.7425 18.47L13.6765 15.5281L16.3603 20.4L19.508 8.64271Z" fill="#0B0D27"/>
</svg>
