<svg width="1920" height="1154" viewBox="0 0 1920 1154" fill="none" xmlns="http://www.w3.org/2000/svg">
<path fill-rule="evenodd" clip-rule="evenodd" d="M1814.03 0V519.763C1814.05 520.518 1814.36 521.234 1814.89 521.768C1815.41 522.302 1816.12 522.613 1816.87 522.639H1918.41C1918.98 522.639 1919.53 522.473 1920 522.167V1154H0V0H1098.76L1061.43 11.3281C1060.84 11.5155 1060.31 11.8816 1059.93 12.3772C1059.55 12.8728 1059.33 13.4744 1059.3 14.1014V94.1158C1059.31 94.502 1059.25 94.887 1059.11 95.2479C1058.97 95.6088 1058.77 95.9381 1058.5 96.2161C1058.24 96.4942 1057.92 96.7152 1057.57 96.8661C1057.21 97.0171 1056.84 97.0947 1056.45 97.0945H989.845C989.463 97.0942 989.085 97.1719 988.733 97.3228C988.381 97.4737 988.063 97.6948 987.798 97.9728C987.532 98.2508 987.325 98.5801 987.188 98.941C987.052 99.3019 986.988 99.687 987.002 100.073V198.782C986.988 199.168 987.052 199.553 987.188 199.914C987.325 200.275 987.532 200.604 987.798 200.882C988.063 201.16 988.381 201.381 988.733 201.532C989.085 201.683 989.463 201.76 989.845 201.76H1056.66C1057.41 201.76 1058.13 202.063 1058.67 202.603C1059.2 203.142 1059.5 203.873 1059.5 204.636V377.299C1059.5 492.133 1113.11 535.376 1259.02 518.839C1259.74 518.741 1260.4 518.388 1260.88 517.842C1261.37 517.296 1261.64 516.593 1261.66 515.86V423.417C1261.66 423.008 1261.58 422.604 1261.42 422.228C1261.26 421.853 1261.02 421.515 1260.73 421.235C1260.43 420.956 1260.08 420.741 1259.7 420.604C1259.32 420.467 1258.92 420.411 1258.51 420.439C1198.61 423.623 1167.13 422.082 1167.13 377.299V204.636C1167.16 203.864 1167.48 203.133 1168.03 202.596C1168.58 202.059 1169.31 201.76 1170.07 201.76H1258.51C1259.26 201.762 1259.98 201.477 1260.53 200.962C1261.07 200.447 1261.41 199.741 1261.46 198.987V100.073C1261.46 99.2832 1261.15 98.5255 1260.6 97.9669C1260.04 97.4083 1259.29 97.0945 1258.51 97.0945H1170.07C1169.29 97.0945 1168.54 96.7807 1167.99 96.222C1167.44 95.6634 1167.13 94.9058 1167.13 94.1158V0H1814.03ZM1486.88 415.862C1487.02 415.421 1487.26 415.019 1487.58 414.689L1705.69 194.264C1706.12 193.73 1706.36 193.058 1706.36 192.364C1706.36 191.67 1706.12 190.998 1705.69 190.464C1697.54 178.972 1688.58 168.09 1678.88 157.903C1638.85 115.196 1583.71 90.2979 1525.56 88.6741C1497.32 87.4945 1469.17 92.4801 1443.01 103.292C1416.85 114.103 1393.3 130.488 1373.96 151.33C1328.58 197.14 1305.53 250.449 1306.75 310.126C1307.01 339.413 1313.09 368.347 1324.64 395.205C1336.19 422.062 1352.96 446.294 1373.96 466.457C1393.97 487.93 1418.11 505.039 1444.9 516.732C1471.68 528.425 1500.55 534.456 1529.72 534.454C1588.71 534.454 1642.43 510.008 1691.37 460.5C1747.21 404.007 1769.15 340.118 1757.37 269.759C1757.3 269.353 1757.14 268.966 1756.92 268.623C1756.69 268.28 1756.4 267.988 1756.05 267.766C1755.71 267.544 1755.32 267.396 1754.92 267.333C1754.52 267.269 1754.11 267.291 1753.71 267.397L1662.33 292.151C1661.68 292.321 1661.11 292.73 1660.73 293.298C1660.36 293.867 1660.2 294.556 1660.3 295.232C1664.06 328.923 1651.57 360.867 1623.44 389.421C1579.07 434.307 1534.19 444.476 1488.29 419.414C1487.89 419.196 1487.54 418.885 1487.27 418.506C1487.01 418.127 1486.83 417.691 1486.77 417.232C1486.7 416.773 1486.73 416.304 1486.88 415.862ZM1573.17 208.202C1572.98 208.61 1572.71 208.971 1572.37 209.261L1427.27 356.45C1426.94 356.762 1426.55 356.997 1426.12 357.136C1425.69 357.276 1425.24 357.319 1424.79 357.26C1424.34 357.201 1423.92 357.042 1423.54 356.796C1423.16 356.549 1422.84 356.221 1422.6 355.834C1396 309.612 1402.6 260.926 1442.3 220.662C1458.49 202.683 1480.51 191.17 1504.38 188.212C1528.24 185.253 1552.36 191.045 1572.37 204.536C1572.71 204.825 1572.98 205.186 1573.17 205.595C1573.36 206.003 1573.46 206.448 1573.46 206.898C1573.46 207.349 1573.36 207.794 1573.17 208.202ZM1374 567.792H1272.47C1272.03 567.677 1271.57 567.668 1271.13 567.767C1270.69 567.866 1270.28 568.069 1269.93 568.36C1269.59 568.651 1269.31 569.021 1269.14 569.44C1268.96 569.859 1268.88 570.315 1268.91 570.77V795.612C1268.91 865.663 1233.37 900.277 1177.53 900.277C1127.47 900.277 1094.88 869.874 1094.88 813.381V570.77C1094.89 570.384 1094.83 569.999 1094.69 569.638C1094.55 569.277 1094.35 568.948 1094.08 568.67C1093.82 568.392 1093.5 568.171 1093.15 568.02C1092.79 567.869 1092.42 567.791 1092.03 567.792H990.496C989.716 567.792 988.966 568.105 988.414 568.664C987.862 569.223 987.552 569.98 987.552 570.77V826.631C987.552 881.481 1002.58 924.107 1031.82 954.921C1046.47 970.243 1064.14 982.29 1083.67 990.286C1103.2 998.282 1124.18 1002.05 1145.24 1001.35C1198.34 1001.35 1238.25 984.606 1264.34 949.991C1264.67 949.438 1265.17 949.011 1265.76 948.78C1266.36 948.548 1267.01 948.526 1267.62 948.715C1268.23 948.905 1268.76 949.295 1269.12 949.825C1269.48 950.354 1269.66 950.991 1269.62 951.635V986.763C1269.61 987.149 1269.67 987.534 1269.81 987.895C1269.95 988.256 1270.15 988.585 1270.42 988.863C1270.68 989.141 1271 989.362 1271.35 989.513C1271.71 989.664 1272.08 989.742 1272.47 989.741H1374C1374.39 989.742 1374.76 989.664 1375.12 989.513C1375.47 989.362 1375.79 989.141 1376.05 988.863C1376.32 988.585 1376.52 988.256 1376.66 987.895C1376.8 987.534 1376.86 987.149 1376.85 986.763V570.77C1376.86 570.384 1376.8 569.999 1376.66 569.638C1376.52 569.277 1376.32 568.948 1376.05 568.67C1375.79 568.392 1375.47 568.171 1375.12 568.02C1374.76 567.869 1374.39 567.791 1374 567.792ZM1821 616.043C1860.88 658.521 1882.49 715.25 1881.11 773.812C1882.52 832.655 1860.92 889.684 1821 932.506C1803.06 953.013 1780.95 969.364 1756.19 980.443C1731.43 991.521 1704.6 997.067 1677.53 996.702C1622.19 996.702 1578.83 978.419 1547.46 941.339C1547.09 940.864 1546.58 940.519 1546.01 940.352C1545.43 940.186 1544.82 940.206 1544.26 940.411C1543.7 940.616 1543.21 940.994 1542.88 941.492C1542.54 941.991 1542.37 942.584 1542.38 943.188V1150.67C1542.38 1151.46 1542.07 1152.22 1541.52 1152.78C1540.97 1153.34 1540.22 1153.65 1539.44 1153.65H1437.9C1437.12 1153.65 1436.37 1153.34 1435.82 1152.78C1435.26 1152.22 1434.95 1151.46 1434.95 1150.67V565.816C1434.95 565.429 1435.03 565.047 1435.18 564.691C1435.33 564.335 1435.55 564.014 1435.82 563.745C1436.1 563.477 1436.42 563.267 1436.78 563.129C1437.14 562.99 1437.52 562.926 1437.9 562.94H1539.44C1539.82 562.926 1540.2 562.99 1540.56 563.129C1540.91 563.267 1541.24 563.477 1541.51 563.745C1541.79 564.014 1542.01 564.335 1542.16 564.691C1542.3 565.047 1542.38 565.429 1542.38 565.816V604.539C1542.37 605.143 1542.54 605.736 1542.88 606.235C1543.21 606.733 1543.7 607.111 1544.26 607.316C1544.82 607.521 1545.43 607.541 1546.01 607.375C1546.58 607.208 1547.09 606.863 1547.46 606.388C1578.83 569.308 1622.19 551.025 1677.53 551.025C1704.65 550.816 1731.51 556.515 1756.26 567.733C1781.02 578.952 1803.1 595.428 1821 616.043ZM1657.52 893.371C1672.77 893.887 1687.97 891.237 1702.16 885.584C1716.36 879.931 1729.26 871.395 1740.07 860.503C1751.16 849.207 1759.85 835.733 1765.6 820.912C1771.34 806.091 1774.02 790.236 1773.48 774.326C1774.1 758.56 1771.45 742.838 1765.69 728.172C1759.94 713.506 1751.21 700.222 1740.07 689.176C1717.92 667.494 1688.3 655.373 1657.47 655.373C1626.65 655.373 1597.03 667.494 1574.87 689.176C1564.04 700.404 1555.57 713.741 1549.99 728.378C1544.4 743.015 1541.82 758.647 1542.38 774.326C1541.89 790.151 1544.5 805.918 1550.08 820.711C1555.66 835.505 1564.09 849.031 1574.87 860.503C1585.76 871.286 1598.7 879.715 1612.91 885.277C1627.12 890.839 1642.3 893.419 1657.52 892.858V893.371Z" fill="white"/>
</svg>
