<svg width="105" height="36" viewBox="0 0 105 36" fill="none" xmlns="http://www.w3.org/2000/svg">
<path d="M12.9339 12.7731H8.74672C8.71057 12.7731 8.67582 12.7873 8.6498 12.8127C8.62379 12.8381 8.60856 12.8727 8.60731 12.9093V21.0827C8.60731 23.2026 10.0976 23.2756 12.9339 23.1248C12.953 23.1235 12.9722 23.1262 12.9902 23.1327C13.0082 23.1391 13.0248 23.1493 13.0388 23.1625C13.0527 23.1758 13.0639 23.1918 13.0715 23.2095C13.0791 23.2273 13.083 23.2465 13.0829 23.2658V27.6419C13.0821 27.6766 13.069 27.7098 13.0461 27.7357C13.0232 27.7615 12.9919 27.7782 12.9579 27.7829C6.04981 28.5657 3.51155 26.5187 3.51155 21.0827V12.9093C3.51155 12.8732 3.49737 12.8385 3.47212 12.813C3.44688 12.7875 3.41264 12.7731 3.37694 12.7731H0.213731C0.195642 12.7732 0.177737 12.7695 0.161085 12.7623C0.144432 12.7552 0.129372 12.7447 0.116808 12.7316C0.104244 12.7184 0.0944329 12.7028 0.0879582 12.6857C0.0814835 12.6686 0.0784804 12.6504 0.0791264 12.6321V7.95953C0.0784804 7.94124 0.0814835 7.92302 0.0879582 7.90593C0.0944329 7.88885 0.104244 7.87326 0.116808 7.8601C0.129372 7.84694 0.144432 7.83647 0.161085 7.82933C0.177737 7.82219 0.195642 7.81851 0.213731 7.81852H3.36733C3.38542 7.81853 3.40332 7.81486 3.41998 7.80771C3.43663 7.80057 3.45169 7.7901 3.46425 7.77694C3.47682 7.76378 3.48663 7.74819 3.4931 7.73111C3.49958 7.71403 3.50258 7.6958 3.50194 7.67752V3.88983C3.50353 3.86016 3.51406 3.83168 3.5321 3.80822C3.55014 3.78475 3.57484 3.76743 3.60289 3.75855L8.41021 2.29988C8.43153 2.28848 8.4555 2.28308 8.47959 2.28424C8.50368 2.28541 8.52703 2.29311 8.54717 2.30653C8.56732 2.31995 8.58353 2.33859 8.59411 2.36052C8.60469 2.38245 8.60925 2.40684 8.60731 2.43116V7.67752C8.60731 7.71491 8.622 7.75078 8.64814 7.77722C8.67429 7.80367 8.70975 7.81852 8.74672 7.81852H12.9339C12.9709 7.81852 13.0063 7.83338 13.0325 7.85982C13.0586 7.88627 13.0733 7.92213 13.0733 7.95953V12.6419C13.0709 12.6775 13.0551 12.711 13.0292 12.7353C13.0033 12.7597 12.9693 12.7732 12.9339 12.7731Z" fill="#0B0D27"/>
<path d="M23.7793 22.8526C23.764 22.8682 23.7526 22.8873 23.7458 22.9082C23.7391 22.9291 23.7373 22.9513 23.7406 22.973C23.7439 22.9947 23.7521 23.0154 23.7647 23.0333C23.7772 23.0512 23.7938 23.0659 23.813 23.0763C25.9859 24.2627 28.1107 23.7813 30.2115 21.6565C31.5431 20.3048 32.1344 18.7926 31.9566 17.1978C31.952 17.1658 31.9593 17.1332 31.977 17.1063C31.9948 17.0794 32.0217 17.06 32.0527 17.052L36.3793 15.8802C36.3979 15.8751 36.4174 15.8741 36.4365 15.8771C36.4556 15.8801 36.4738 15.8871 36.4901 15.8976C36.5064 15.9081 36.5203 15.9219 36.531 15.9382C36.5417 15.9544 36.549 15.9728 36.5524 15.992C37.11 19.3226 36.0716 22.3469 33.4276 25.0212C31.1105 27.3648 28.5674 28.522 25.7743 28.522C24.3931 28.5221 23.0265 28.2366 21.7584 27.6831C20.4902 27.1295 19.3473 26.3197 18.3999 25.3032C17.4057 24.3487 16.6116 23.2016 16.0648 21.9303C15.5181 20.6589 15.2299 19.2892 15.2175 17.9028C15.1598 15.0779 16.251 12.5544 18.3999 10.3858C19.3155 9.39921 20.4305 8.62363 21.669 8.11183C22.9075 7.60003 24.2405 7.36402 25.5772 7.41986C28.3306 7.49673 30.9412 8.67534 32.8363 10.697C33.2955 11.1792 33.7196 11.6943 34.1054 12.2383C34.1261 12.2636 34.1375 12.2954 34.1375 12.3283C34.1375 12.3611 34.1261 12.3929 34.1054 12.4182L23.7793 22.8526ZM27.7934 13.1281C27.8096 13.1144 27.8226 13.0973 27.8315 13.078C27.8404 13.0587 27.845 13.0376 27.845 13.0163C27.845 12.995 27.8404 12.9739 27.8315 12.9546C27.8226 12.9353 27.8096 12.9182 27.7934 12.9045C26.8463 12.2658 25.7043 11.9917 24.5744 12.1317C23.4446 12.2718 22.4018 12.8168 21.6352 13.6678C19.7556 15.5738 19.4431 17.8785 20.7026 20.0665C20.7139 20.0849 20.7291 20.1004 20.747 20.1121C20.7649 20.1237 20.7852 20.1312 20.8064 20.134C20.8275 20.1368 20.849 20.1348 20.8693 20.1282C20.8896 20.1216 20.9082 20.1105 20.9238 20.0957L27.7934 13.1281Z" fill="#0B0D27"/>
<path d="M57.1373 27.9627H51.5705C51.5504 27.9628 51.5306 27.9585 51.5123 27.9501C51.4941 27.9417 51.4778 27.9294 51.4647 27.9141L44.5614 19.201C44.5431 19.1794 44.5187 19.1639 44.4916 19.1565C44.4644 19.1492 44.4357 19.1503 44.4091 19.1598C44.3826 19.1693 44.3596 19.1866 44.343 19.2096C44.3264 19.2326 44.317 19.2601 44.3162 19.2885V27.8266C44.3149 27.8631 44.2997 27.8978 44.2737 27.9232C44.2477 27.9486 44.2129 27.9627 44.1768 27.9627H39.3695C39.3341 27.9615 39.3006 27.9468 39.2756 27.9215C39.2506 27.8962 39.2361 27.8623 39.2349 27.8266V0.141005C39.2348 0.104435 39.2489 0.0692879 39.274 0.0429798C39.2991 0.0166717 39.3333 0.00126101 39.3695 0L44.1768 0C44.2138 0 44.2492 0.0148558 44.2754 0.0412994C44.3015 0.0677429 44.3162 0.103608 44.3162 0.141005V16.376C44.3151 16.4054 44.3235 16.4344 44.34 16.4587C44.3566 16.4829 44.3805 16.501 44.4081 16.5103C44.4358 16.5196 44.4656 16.5196 44.4933 16.5103C44.5209 16.501 44.5448 16.4829 44.5614 16.4587L51.0657 8.04214C51.0791 8.02556 51.096 8.01217 51.1151 8.00293C51.1342 7.99368 51.1551 7.98881 51.1762 7.98865H56.9018C56.9277 7.98931 56.9529 7.99726 56.9746 8.0116C56.9962 8.02594 57.0135 8.04611 57.0245 8.06984C57.0355 8.09357 57.0397 8.11992 57.0367 8.14595C57.0337 8.17198 57.0236 8.19664 57.0075 8.21718L49.3158 17.7666C49.2951 17.7919 49.2838 17.8237 49.2838 17.8566C49.2838 17.8894 49.2951 17.9212 49.3158 17.9465L57.2383 27.7391C57.2529 27.7593 57.2619 27.7831 57.2644 27.808C57.2669 27.8329 57.2628 27.858 57.2525 27.8808C57.2422 27.9035 57.2262 27.9231 57.2059 27.9375C57.1857 27.9519 57.162 27.9606 57.1373 27.9627Z" fill="#0B0D27"/>
<path d="M75.8426 7.99366H80.65C80.6681 7.99365 80.686 7.99733 80.7026 8.00447C80.7193 8.01161 80.7343 8.02208 80.7469 8.03524C80.7594 8.0484 80.7693 8.06399 80.7757 8.08107C80.7822 8.09816 80.7852 8.11638 80.7846 8.13467V27.8267C80.7852 27.845 80.7822 27.8632 80.7757 27.8803C80.7693 27.8974 80.7594 27.913 80.7469 27.9261C80.7343 27.9393 80.7193 27.9498 80.7026 27.9569C80.686 27.9641 80.6681 27.9677 80.65 27.9677H75.8426C75.8246 27.9677 75.8066 27.9641 75.79 27.9569C75.7733 27.9498 75.7583 27.9393 75.7457 27.9261C75.7332 27.913 75.7233 27.8974 75.7169 27.8803C75.7104 27.8632 75.7074 27.845 75.708 27.8267V26.1638C75.7098 26.1334 75.7015 26.1032 75.6843 26.0782C75.6671 26.0531 75.6421 26.0346 75.6133 26.0256C75.5844 26.0167 75.5535 26.0178 75.5253 26.0287C75.4972 26.0397 75.4735 26.0599 75.4581 26.086C74.2226 27.7246 72.3333 28.5172 69.8191 28.5172C68.8219 28.5504 67.8289 28.372 66.9041 27.9935C65.9792 27.615 65.143 27.0447 64.4493 26.3194C63.0648 24.8608 62.3533 22.8429 62.3533 20.2465V8.13467C62.3533 8.09727 62.368 8.06141 62.3941 8.03496C62.4203 8.00852 62.4557 7.99366 62.4927 7.99366H67.3C67.3181 7.99365 67.336 7.99733 67.3527 8.00447C67.3693 8.01161 67.3844 8.02208 67.397 8.03524C67.4095 8.0484 67.4193 8.06399 67.4258 8.08107C67.4323 8.09816 67.4353 8.11638 67.4346 8.13467V19.6193C67.4346 22.2935 68.9778 23.7327 71.3478 23.7327C73.9918 23.7327 75.6744 22.0941 75.6744 18.7781V8.13467C75.6729 8.11313 75.6766 8.09155 75.685 8.07171C75.6934 8.05187 75.7064 8.03434 75.7228 8.02057C75.7392 8.00679 75.7587 7.99717 75.7795 7.99249C75.8004 7.98781 75.822 7.98822 75.8426 7.99366Z" fill="#0B0D27"/>
<path d="M101.813 10.2778C103.701 12.2886 104.724 14.974 104.659 17.7462C104.726 20.5317 103.703 23.2313 101.813 25.2584C100.963 26.2292 99.9168 27.0032 98.7446 27.5276C97.5723 28.052 96.302 28.3146 95.0203 28.2973C92.4003 28.2973 90.3476 27.4318 88.8621 25.6765C88.8446 25.6541 88.8206 25.6377 88.7934 25.6298C88.7663 25.6219 88.7373 25.6229 88.7107 25.6326C88.6841 25.6423 88.6612 25.6602 88.6452 25.6838C88.6293 25.7074 88.621 25.7355 88.6217 25.764V35.5858C88.6217 35.6232 88.6071 35.659 88.5809 35.6855C88.5548 35.7119 88.5193 35.7268 88.4823 35.7268H83.675C83.638 35.7268 83.6026 35.7119 83.5764 35.6855C83.5503 35.659 83.5356 35.6232 83.5356 35.5858V7.90019C83.5356 7.8819 83.5392 7.86379 83.5463 7.84694C83.5533 7.8301 83.5637 7.81487 83.5767 7.80216C83.5897 7.78946 83.6051 7.77953 83.622 7.77298C83.6389 7.76643 83.6569 7.7634 83.675 7.76405H88.4823C88.5004 7.7634 88.5184 7.76643 88.5353 7.77298C88.5522 7.77953 88.5676 7.78946 88.5806 7.80216C88.5937 7.81487 88.604 7.8301 88.6111 7.84694C88.6181 7.86379 88.6218 7.8819 88.6217 7.90019V9.73326C88.621 9.76184 88.6293 9.78992 88.6452 9.81352C88.6612 9.83711 88.6841 9.85502 88.7107 9.86471C88.7373 9.87439 88.7663 9.87536 88.7934 9.86747C88.8206 9.85959 88.8446 9.84325 88.8621 9.82078C90.3476 8.06551 92.4003 7.20003 95.0203 7.20003C96.3046 7.19015 97.5759 7.4599 98.748 7.99096C99.92 8.52203 100.965 9.30197 101.813 10.2778ZM94.0733 23.4059C94.7952 23.4303 95.5145 23.3048 96.1867 23.0372C96.8589 22.7696 97.4698 22.3655 97.9816 21.8499C98.5067 21.3152 98.9179 20.6774 99.1899 19.9758C99.4619 19.2742 99.589 18.5237 99.5632 17.7705C99.5925 17.0242 99.4669 16.28 99.1944 15.5857C98.922 14.8915 98.5089 14.2627 97.9816 13.7397C96.9327 12.7134 95.5303 12.1396 94.0708 12.1396C92.6114 12.1396 91.2091 12.7134 90.1601 13.7397C89.6472 14.2713 89.2464 14.9026 88.9819 15.5955C88.7175 16.2883 88.595 17.0283 88.6217 17.7705C88.5983 18.5197 88.7222 19.266 88.9863 19.9663C89.2504 20.6666 89.6494 21.3069 90.1601 21.8499C90.6755 22.3604 91.2882 22.7594 91.961 23.0227C92.6337 23.286 93.3524 23.4081 94.0733 23.3816V23.4059Z" fill="#0B0D27"/>
</svg>
