<svg width="28" height="28" viewBox="0 0 28 28" fill="none" xmlns="http://www.w3.org/2000/svg">
<path d="M14 12.8333V9.33325L18.6667 13.9999L14 18.6666V15.1666H9.33337V12.8333H14ZM14 2.33325C20.44 2.33325 25.6667 7.55992 25.6667 13.9999C25.6667 20.4399 20.44 25.6666 14 25.6666C7.56004 25.6666 2.33337 20.4399 2.33337 13.9999C2.33337 7.55992 7.56004 2.33325 14 2.33325ZM14 23.3333C19.1567 23.3333 23.3334 19.1566 23.3334 13.9999C23.3334 8.84325 19.1567 4.66659 14 4.66659C8.84337 4.66659 4.66671 8.84325 4.66671 13.9999C4.66671 19.1566 8.84337 23.3333 14 23.3333Z" fill="#0B0D27"/>
</svg>
